# This file uses centimeters as units for non-parametric coordinates.

mtllib Table_01.mtl
g default
v -2.002342 0.283172 -2.460301
v 2.002342 0.283172 -2.460301
v -2.002342 2.538451 -2.460301
v 2.002342 2.538451 -2.460301
v -2.002342 0.283172 -1.211132
v 2.002342 0.283172 -1.211132
v 2.002342 2.057452 -1.211132
v -2.002342 2.057452 -1.211132
v -2.122550 0.283172 -2.580509
v 2.122550 0.283172 -2.580509
v 2.122550 0.283172 -1.090924
v -2.122550 0.283172 -1.090924
v -2.122550 0.000000 -2.580509
v 2.122550 0.000000 -2.580509
v 2.122550 0.000000 -1.090924
v -2.122550 0.000000 -1.090924
v 2.002342 2.057452 1.211132
v 2.002342 2.538451 2.460301
v -2.002342 2.538451 2.460301
v -2.002342 2.057452 1.211132
v -2.002342 0.283172 2.460301
v 2.002342 0.283172 2.460301
v -2.002342 0.283172 1.211132
v 2.002342 0.283172 1.211132
v -2.122550 0.283172 2.580509
v 2.122550 0.283172 2.580509
v 2.122550 0.283172 1.090924
v -2.122550 0.283172 1.090924
v -2.122550 0.000000 2.580509
v 2.122550 0.000000 2.580509
v 2.122550 0.000000 1.090924
v -2.122550 0.000000 1.090924
vt 0.470580 0.854989
vt 0.470580 0.600116
vt 0.521191 0.468677
vt 0.521191 0.986428
vt 0.283889 0.600116
vt 0.283889 0.468677
vt 0.283889 0.986428
vt 0.283889 0.854989
vt 0.521191 0.986428
vt 0.470580 0.854989
vt 0.470580 0.600116
vt 0.521191 0.468677
vt 0.283889 0.986428
vt 0.283889 0.854989
vt 0.283889 0.600116
vt 0.283889 0.468677
vt 0.234607 0.985668
vt 0.204811 0.985668
vt 0.204811 0.828932
vt 0.234607 0.828932
vt 0.234607 0.985668
vt 0.204811 0.985668
vt 0.204811 0.828932
vt 0.234607 0.828932
vt 0.264402 0.828932
vt 0.264402 0.985668
vt 0.234607 0.985668
vt 0.234607 0.828932
vt 0.264402 0.828932
vt 0.264402 0.985668
vt 0.234607 0.985668
vt 0.234607 0.828932
vt 0.451021 0.026523
vt 0.705894 0.026523
vt 0.705894 0.447900
vt 0.451021 0.447900
vt 0.959668 0.987947
vt 0.538291 0.987947
vt 0.538291 0.470196
vt 0.959668 0.470196
vt 0.865554 0.017765
vt 0.878202 0.005117
vt 0.878202 0.451790
vt 0.865554 0.439142
vt 0.734115 0.017765
vt 0.721466 0.005117
vt 0.721466 0.451790
vt 0.734115 0.439142
vt 0.734115 0.017765
vt 0.734115 0.439142
vt 0.721466 0.451790
vt 0.721466 0.005116
vt 0.865554 0.439142
vt 0.878202 0.451790
vt 0.865554 0.017765
vt 0.878202 0.005116
vt 0.433895 0.449473
vt 0.196592 0.449473
vt 0.196592 0.028096
vt 0.433895 0.028096
vt 0.007893 0.990761
vt 0.007893 0.569384
vt 0.194584 0.569384
vt 0.194584 0.990761
vt 0.155301 0.023617
vt 0.185097 0.023617
vt 0.185097 0.470291
vt 0.155301 0.470291
vt 0.185097 0.470291
vt 0.155301 0.470291
vt 0.155301 0.023617
vt 0.185097 0.023617
vt 0.196592 0.449473
vt 0.196592 0.028096
vt 0.433894 0.028096
vt 0.433894 0.449473
vt 0.194584 0.990760
vt 0.007893 0.990760
vt 0.007893 0.569384
vt 0.194584 0.569384
vt 0.185097 0.023617
vt 0.185097 0.470291
vt 0.155301 0.470291
vt 0.155301 0.023617
vt 0.155301 0.470291
vt 0.155301 0.023617
vt 0.185097 0.023617
vt 0.185097 0.470291
vn 0.000000 0.000000 -1.000000
vn 0.000000 0.000000 -1.000000
vn 0.000000 0.000000 -1.000000
vn 0.000000 0.000000 -1.000000
vn 0.000000 -1.000000 0.000000
vn 0.000000 -1.000000 0.000000
vn 0.000000 -1.000000 0.000000
vn 0.000000 -1.000000 0.000000
vn 0.000000 1.000000 0.000000
vn 0.000000 1.000000 0.000000
vn 0.000000 1.000000 0.000000
vn 0.000000 1.000000 0.000000
vn 1.000000 -0.000000 0.000000
vn 1.000000 -0.000000 0.000000
vn 1.000000 -0.000000 0.000000
vn 1.000000 -0.000000 0.000000
vn 1.000000 0.000000 0.000000
vn 1.000000 0.000000 0.000000
vn 0.000000 -0.000000 1.000000
vn 0.000000 -0.000000 1.000000
vn 0.000000 -0.000000 1.000000
vn 0.000000 -0.000000 1.000000
vn -1.000000 -0.000001 0.000000
vn -1.000000 -0.000001 0.000000
vn -1.000000 -0.000001 0.000000
vn -1.000000 -0.000001 0.000000
vn -1.000000 0.000000 0.000000
vn -1.000000 0.000000 0.000000
vn -1.000000 0.000000 0.000000
vn -1.000000 0.000000 0.000000
vn 0.000000 1.000000 0.000000
vn 0.000000 1.000000 0.000000
vn -0.000000 1.000000 0.000000
vn -0.000000 1.000000 0.000000
vn 0.000000 1.000000 0.000000
vn 0.000000 1.000000 0.000000
vn -0.000000 1.000000 0.000000
vn -0.000000 1.000000 0.000000
vn 0.000000 0.000000 -1.000000
vn 0.000000 0.000000 -1.000000
vn 0.000000 0.000000 -1.000000
vn 0.000000 0.000000 -1.000000
vn 1.000000 0.000000 0.000000
vn 1.000000 0.000000 0.000000
vn 1.000000 0.000000 0.000000
vn 1.000000 0.000000 0.000000
vn 0.000000 0.000000 1.000000
vn 0.000000 0.000000 1.000000
vn 0.000000 0.000000 1.000000
vn 0.000000 0.000000 1.000000
vn -1.000000 0.000000 0.000000
vn -1.000000 0.000000 0.000000
vn -1.000000 0.000000 0.000000
vn -1.000000 0.000000 0.000000
vn 0.000000 -0.000000 1.000000
vn 0.000000 -0.000000 1.000000
vn 0.000000 -0.000000 1.000000
vn 0.000000 -0.000000 1.000000
vn 1.000000 0.000000 0.000000
vn 1.000000 0.000000 0.000000
vn 1.000000 0.000000 0.000000
vn 1.000000 0.000000 0.000000
vn 0.000000 -0.000000 -1.000000
vn 0.000000 -0.000000 -1.000000
vn 0.000000 -0.000000 -1.000000
vn 0.000000 -0.000000 -1.000000
vn -1.000000 0.000000 0.000000
vn -1.000000 0.000000 0.000000
vn -1.000000 0.000000 0.000000
vn -1.000000 0.000000 0.000000
vn 0.000000 1.000000 -0.000000
vn -0.000000 1.000000 -0.000000
vn -0.000000 1.000000 -0.000000
vn 0.000000 1.000000 -0.000000
vn 0.000000 1.000000 -0.000000
vn 0.000000 1.000000 -0.000000
vn -0.000000 1.000000 -0.000000
vn -0.000000 1.000000 -0.000000
vn 0.000000 0.000000 1.000000
vn 0.000000 0.000000 1.000000
vn 0.000000 0.000000 1.000000
vn 0.000000 0.000000 1.000000
vn 1.000000 0.000000 0.000000
vn 1.000000 0.000000 0.000000
vn 1.000000 0.000000 0.000000
vn 1.000000 0.000000 0.000000
vn 0.000000 0.000000 -1.000000
vn 0.000000 0.000000 -1.000000
vn 0.000000 0.000000 -1.000000
vn 0.000000 0.000000 -1.000000
vn -1.000000 0.000000 0.000000
vn -1.000000 0.000000 0.000000
vn -1.000000 0.000000 0.000000
vn -1.000000 0.000000 0.000000
s off
g studyRoom_Table_01
usemtl lambert1SG
f 1/57/1 3/58/2 4/59/3 2/60/4
f 7/33/5 17/34/6 20/35/7 8/36/8
f 4/37/9 3/38/10 19/39/11 18/40/12
s 1
f 17/1/13 7/2/14 4/3/15 18/4/16
f 7/2/14 6/5/17 2/6/18 4/3/15
s off
f 5/61/19 6/62/20 7/63/21 8/64/22
f 3/9/23 8/10/24 20/11/25 19/12/26
f 3/9/27 1/13/28 5/14/29 8/10/30
s 2
f 2/41/31 10/42/32 9/43/33 1/44/34
f 6/45/35 11/46/36 10/42/32 2/41/31
f 5/48/37 12/47/38 11/46/36 6/45/35
f 1/44/34 9/43/33 12/47/38 5/48/37
s off
f 10/65/39 14/66/40 13/67/41 9/68/42
f 11/17/43 15/18/44 14/19/45 10/20/46
f 12/69/47 16/70/48 15/71/49 11/72/50
f 9/21/51 13/22/52 16/23/53 12/24/54
f 21/73/55 22/74/56 18/75/57 19/76/58
f 17/1/59 18/4/60 22/7/61 24/8/62
f 23/77/63 20/78/64 17/79/65 24/80/66
f 19/12/67 20/11/68 23/15/69 21/16/70
s 3
f 22/49/71 21/50/72 25/51/73 26/52/74
f 24/55/75 22/49/71 26/52/74 27/56/76
f 23/53/77 24/55/75 27/56/76 28/54/78
f 21/50/72 23/53/77 28/54/78 25/51/73
s off
f 26/81/79 25/82/80 29/83/81 30/84/82
f 27/25/83 26/26/84 30/27/85 31/28/86
f 28/85/87 27/86/88 31/87/89 32/88/90
f 25/29/91 28/30/92 32/31/93 29/32/94
